<svg id="logo" width="16" height="16" viewBox="0 0 40 50" fill="none" xmlns="http://www.w3.org/2000/svg">
    <path
        d="M0 3.65319e-08L16.369 0C19.1413 0 20.0067 0.497093 21.4429 1.49128C22.8791 2.48547 23.831 3.82946 24.2986 5.52326C24.7662 7.21706 25 9.40794 25 12.0959C25 14.6734 24.7662 16.8275 24.2986 18.5581C23.831 20.2519 22.8624 21.6143 21.3928 22.6453C19.9566 23.6764 17.8357 24.1919 15.0301 24.1919H4.30862V38H0V3.65319e-08ZM13.5 19.5C15.671 19.5 17.3347 19.5339 18.3367 19.0552C19.3387 18.5397 19.99 17.7665 20.2906 16.7355C20.5912 15.7045 20.7415 14.1579 20.7415 12.0959C20.7415 10.0339 20.5912 8.4874 20.2906 7.4564C20.0234 6.42539 19.3888 5.67054 18.3868 5.19186C17.4182 4.67636 15.8484 4.41861 13.6774 4.41861H4.30862V19.5H13.5Z"
        fill="#B0EDFB"
    />
    <path d="M1 37L1 1L16.1806 1L16.1806 3.5L3.50001 3.5L3.50001 20.5H14.3129L14.3129 23.221H3.50001L3.50001 37H1Z" fill="#514D50" />
</svg>