<svg aria-hidden="true" style="position: absolute; width: 0; height: 0; overflow: hidden;" version="1.1" xmlns="http://www.w3.org/2000/svg" xmlns:xlink="http://www.w3.org/1999/xlink">

<symbol viewBox="0 0 201 27" id="bar">
    <path d="M2.85745 0H198.293C201.055 3.952 201.268 6.05736 198.293 10H2.85745C-0.29026 6.36379 -0.427777 4.25317 2.85745 0Z" fill="#B0EDFB"/>
    <path d="M2 19.9619C2 17.7747 2.334 16.0708 3.00199 14.8501C3.66998 13.6167 4.83897 13 6.50895 13C8.167 13 9.33002 13.6167 9.99801      14.8501C10.666 16.0708 11 17.7747 11 19.9619C11 22.1871 10.666 23.9164 9.99801 25.1499C9.33002 26.3833 8.167 27 6.50895 27C4.83897 27 3.66998 26.3833 3.00199 25.1499C2.334 23.9164 2 22.1871 2 19.9619ZM9.38966 19.9619C9.38966 18.8556 9.31809 17.921 9.17495 17.158C9.04374 16.3824 8.76342 15.7593 8.334 15.2888C7.9165 14.8183 7.30815 14.5831 6.50895 14.5831C5.69781 14.5831 5.07753 14.8183 4.64811 15.2888C4.23062 15.7593 3.9503 16.3824 3.80716 17.158C3.67594 17.921 3.61034 18.8556 3.61034 19.9619C3.61034 21.1063 3.67594 22.0663 3.80716 22.842C3.9503 23.6176 4.23062 24.2407 4.64811 24.7112C5.07753 25.1817 5.69781 25.4169 6.50895 25.4169C7.30815 25.4169 7.9165 25.1817 8.334 24.7112C8.76342 24.2407 9.04374 23.6176 9.17495 22.842C9.31809 22.0663 9.38966 21.1063 9.38966 19.9619Z" fill="#4f9cc8"/>
    <path d="M175 14.7929V13.2098H177.806V27H176.433V14.7929H175Z" fill="#4f9cc8"/>
    <path d="M181.631 19.9619C181.631 17.7747 181.909 16.0708 182.466 14.8501C183.023 13.6167 183.998 13 185.391 13C186.774 13 187.744 13.6167 188.301 14.8501C188.858 16.0708 189.137 17.7747 189.137 19.9619C189.137 22.1871 188.858 23.9164 188.301 25.1499C187.744 26.3833 186.774 27 185.391 27C183.998 27 183.023 26.3833 182.466 25.1499C181.909 23.9164 181.631 22.1871 181.631 19.9619ZM187.794 19.9619C187.794 18.8556 187.734 17.921 187.615 17.158C187.505 16.3824 187.272 15.7593 186.913 15.2888C186.565 14.8183 186.058 14.5831 185.391 14.5831C184.715 14.5831 184.197 14.8183 183.839 15.2888C183.491 15.7593 183.257 16.3824 183.138 17.158C183.028 17.921 182.974 18.8556 182.974 19.9619C182.974 21.1063 183.028 22.0663 183.138 22.842C183.257 23.6176 183.491 24.2407 183.839 24.7112C184.197 25.1817 184.715 25.4169 185.391 25.4169C186.058 25.4169 186.565 25.1817 186.913 24.7112C187.272 24.2407 187.505 23.6176 187.615 22.842C187.734 22.0663 187.794 21.1063 187.794 19.9619Z" fill="#4f9cc8"/>
    <path d="M192.494 19.9619C192.494 17.7747 192.772 16.0708 193.329 14.8501C193.886 13.6167 194.861 13 196.254 13C197.637 13 198.607 13.6167 199.164 14.8501C199.721 16.0708 200 17.7747 200 19.9619C200 22.1871 199.721 23.9164 199.164 25.1499C198.607 26.3833 197.637 27 196.254 27C194.861 27 193.886 26.3833 193.329 25.1499C192.772 23.9164 192.494 22.1871 192.494 19.9619ZM198.657 19.9619C198.657 18.8556 198.597 17.921 198.478 17.158C198.368 16.3824 198.135 15.7593 197.776 15.2888C197.428 14.8183 196.921 14.5831 196.254 14.5831C195.578 14.5831 195.06 14.8183 194.702 15.2888C194.354 15.7593 194.12 16.3824 194.001 17.158C193.891 17.921 193.837 18.8556 193.837 19.9619C193.837 21.1063 193.891 22.0663 194.001 22.842C194.12 23.6176 194.354 24.2407 194.702 24.7112C195.06 25.1817 195.578 25.4169 196.254 25.4169C196.921 25.4169 197.428 25.1817 197.776 24.7112C198.135 24.2407 198.368 23.6176 198.478 22.842C198.597 22.0663 198.657 21.1063 198.657 19.9619Z" fill="#4f9cc8"/>		
        	
</symbol>

</svg>
